<?xml version="1.0" encoding="UTF-8"?>
<svg width="72px" height="24px" viewBox="0 0 72 24" version="1.1" xmlns="http://www.w3.org/2000/svg" xmlns:xlink="http://www.w3.org/1999/xlink">
    <title>Combined Shape</title>
    <g id="Welcome" stroke="none" stroke-width="1" fill="none" fill-rule="evenodd">
        <g id="Desktop" transform="translate(-921.000000, -39.000000)" fill="#2D1303">
            <g id="Menu">
                <path d="M989.842105,56.6842105 C991.586162,56.6842105 993,58.0980482 993,59.8421053 C993,61.5861624 991.586162,63 989.842105,63 L924.157895,63 C922.413838,63 921,61.5861624 921,59.8421053 C921,58.0980482 922.413838,56.6842105 924.157895,56.6842105 L989.842105,56.6842105 Z M989.842105,39 C991.586162,39 993,40.4138376 993,42.1578947 C993,43.9019518 991.586162,45.3157895 989.842105,45.3157895 L948.703349,45.3157895 C946.959292,45.3157895 945.545455,43.9019518 945.545455,42.1578947 C945.545455,40.4138376 946.959292,39 948.703349,39 L989.842105,39 Z" id="Combined-Shape"></path>
            </g>
        </g>
    </g>
</svg>