<?xml version="1.0" encoding="UTF-8"?>
<svg width="49px" height="47px" viewBox="0 0 49 47" version="1.1" xmlns="http://www.w3.org/2000/svg" xmlns:xlink="http://www.w3.org/1999/xlink">
    <title>Combined Shape</title>
    <g id="Welcome" stroke="none" stroke-width="1" fill="none" fill-rule="evenodd">
        <g id="Desktop-Copy" transform="translate(-956.000000, -27.000000)" fill="#2D1303">
            <g id="Hero-Section">
                <g id="Menu-Button">
                    <path d="M998.147787,27.9037122 C999.406486,26.6987626 1001.39085,26.6987626 1002.64955,27.9037122 L1002.64955,27.9037122 L1003.19517,28.4260278 C1003.22936,28.4587623 1003.26284,28.4922388 1003.29557,28.5264335 C1004.5387,29.8250139 1004.49375,31.8854756 1003.19517,33.1286035 L1003.19517,33.1286035 L985.352,50.209 L1003.19517,67.2904429 C1004.49375,68.5335708 1004.5387,70.5940325 1003.29557,71.892613 C1003.26284,71.9268076 1003.22936,71.9602841 1003.19517,71.9930186 L1002.64955,72.5153343 C1001.39085,73.7202838 999.406486,73.7202838 998.147787,72.5153343 L980.099,55.238 L962.051502,72.5153343 C960.841214,73.6739396 958.960007,73.7185014 957.69811,72.6490195 L957.549737,72.5153343 L957.004123,71.9930186 C956.969928,71.9602841 956.936452,71.9268076 956.903717,71.892613 C955.660589,70.5940325 955.705542,68.5335708 957.004123,67.2904429 L957.004123,67.2904429 L974.847,50.209 L957.004123,33.1286035 C955.705542,31.8854756 955.660589,29.8250139 956.903717,28.5264335 C956.936452,28.4922388 956.969928,28.4587623 957.004123,28.4260278 L957.549737,27.9037122 C958.808436,26.6987626 960.792803,26.6987626 962.051502,27.9037122 L980.099,45.18 Z" id="Combined-Shape"></path>
                </g>
            </g>
        </g>
    </g>
</svg>